<?xml version="1.0" encoding="utf-8"?>
<!-- Generator: Adobe Illustrator 23.1.0, SVG Export Plug-In . SVG Version: 6.00 Build 0)  -->
<svg version="1.1" id="圖層_1" xmlns="http://www.w3.org/2000/svg" xmlns:xlink="http://www.w3.org/1999/xlink" x="0px" y="0px"
	 viewBox="0 0 353.1 81.3" style="enable-background:new 0 0 353.1 81.3;" xml:space="preserve">
<style type="text/css">
	.st0{fill:#392321;stroke:#392321;stroke-miterlimit:10;}
</style>
<g>
	<path class="st0" d="M44,10.7l0.3-0.4l0.1,0.1l2.3-1.9l4.9,4.1l-2.2,1.3l-1.5,0.6l-1.8,2.4l-2.3,2.6l-1.2,1.3L40,23.3l-0.5,0.4h18
		l2.8-2.3l4.9,4.1l-2.3,1.8v45.3l-0.1,1.1l-0.2,1.2L62.2,76l-0.6,1L61,77.9L60,78.7l-1,0.6L58,79.6l-1.2,0.2l-1.1,0.1v-2.7l-9-1.3
		v-1.3h9l0.5-0.1l0.4-0.1l0.4-0.2l0.2-0.2l0.2-0.4l0.1-0.4v-0.5V54.7H17.5v2.7l-0.1,0.2L17,60.8l-0.7,3l-0.9,2.9l-1.2,2.7l-1.4,2.4
		l-1.6,2.3l-1.8,2l-2.2,1.8L5,79.4l-2.6,1.2L2,79.9l1.9-1.8l1.8-1.9l1.5-1.9l1.3-2.1l1.1-2.1l0.9-2.3l0.7-2.4l0.5-2.5L12,60l0.1-2.7
		V24.6l-1.8,1.9l-2.8,2.6l-3,2.4l-3.3,2.3l-0.5-0.6l5.1-5.9l2.3-2.9l4.1-5.7L14,16l1.6-2.9l1.4-2.9l1.2-2.9l1-2.5h-0.1l0.4-1.1
		l4.8,2.5l0.9,1.3l-1.7,0.3L23,9.3l-0.8,1.4L44,10.7L44,10.7z M17.5,23.7h20l3.4-6.4l2.2-4.3l0.3-0.6h-22l-1.8,2.8l-2,2.9l-2.2,2.8
		l-0.9,1L17.5,23.7z M17.5,38.1h17V25.5h-17V38.1z M17.5,52.8h17V39.9h-17V52.8z M40,38.1h17.5V25.5H40V38.1z M40,52.8h17.5V39.9H40
		V52.8z"/>
	<path class="st0" d="M96.8,79.8v-2.7l-6.3-1.3v-1.3h6.3l0.7-0.1l0.5-0.1l0.6-0.2l0.4-0.1l0.4-0.3l0.3-0.3l0.4-0.3l0.3-0.3l0.3-0.5
		l0.3-0.5l1.3-2.9l1.2-4.8l0.8-6.2l0.3-7.2l-0.4-7.8l-0.3-1.8l-1.8,3.3l-4.1,6l-2.3,2.8L93,56l-2.6,2.5l-2.8,2.3l-3.1,2.2L84,62.5
		l4.7-5.6l4.2-5.6l1.8-2.9l3.3-6.1l1.4-3.1l1.3-3.3l1.1-3.3l0.4,0.2l-1.7-6.4l-1.1-2.5l-2.2,2.3l-3,2.8l-3.2,2.6L88,33.7l-3.4,2
		L84,35.1l2.9-2.7l2.7-2.7l2.7-2.8l2.5-3l2.5-3.2l0.6-0.9l-0.7-1.6l-4.6-7.7l-5.8-7.3l0.5-0.6L94.5,9l5.5,7.8l3.9-6.8l3.8-8.1
		l0.3-0.6l4.7,2.8l0.8,1.3l-1.7,0.2l-1.4,2.7l-2.3,4.1l-2.5,3.8l-2.6,3.6l-1,1.3l1.9,4.2l2.8,8.7l0.1,0.5l0.3,0.1l-0.2,0.3l1.5,7.8
		l0.8,8.3v7.6l-0.7,6.6l-1.1,5.4l-1.5,4.1l-0.5,0.9l-0.8,0.9l-0.8,0.8l-0.8,0.7l-0.9,0.6l-1,0.5l-1,0.4l-1.1,0.3L98,79.7L96.8,79.8z
		 M112.3,80.4l-1.3-0.9l-2.8-4.8l0.8-0.3l6.9-2.2l0.5-0.2V48.4l5.4,0.8l1.3,0.9l-1.3,0.8v19.5l4.9-1.3l2.2-0.5l2.1-0.4l0.3,0.8
		l-3.7,2.3l-3.8,2.2l-6.3,3l-4.4,2l-0.5,0.3L112.3,80.4z M121.3,19.8l-1.7-1.2l-0.5-1.4l-0.8-1.6l-0.5-0.8l-1.9-2.4l-0.8-0.9
		l-0.9-0.7l0.3-0.3l-0.2,0.1l-0.5-0.6l1-0.9l3.6-4.8l1-1.8l0.5-0.8l0.2-0.4h-0.1l0.5-0.6l4,3.6l0.4,1.6l-2-0.3l-1,0.7L119,8.2
		l-2.3,1.2l-1.3,0.5l-0.6,0.4l0.8,0.4l1.2,0.3l1.1,0.4l1,0.4l1,0.6l1.8,1.2l0.8,0.7l0.8,0.7l0.8,0.8l0.3,2.1l-1.2,1.7L121.3,19.8z
		 M161.3,79.3l-2.6-0.5l-2.4-1.3l-1.9-1.9l-1.5-2.5l-1.3-2.8l-1-3.4l-0.8-3.8l-0.6-4.3l-0.1-1.8l-0.8,1.2l-2,0.4l-1.7-1.1l-0.6-1.4
		l-0.8-1.5l-0.9-1.5l-1.8-2.4l-0.8-0.7l0.4-0.7l0.9,0.5l1,0.3l1,0.4l0.9,0.4l1.8,1l0.8,0.6l0.8,0.6l0.8,0.6L149,54v-0.3l-0.2-4.9
		v-1.5l3.1,0.6v-2.7h-31.7l-5.3,2.7V19.7l5.3,2.7h31.7l2.7-2.3l4.9,4l-2.2,1.8v19.3l-5.3,2.7l2.3,0.4l1.3,0.8l-1.3,0.8l0.2,3.5
		l0.3,4.6l0.5,4.1l0.7,3.4l0.8,2.8l0.9,2.2l1,1.6l0.5,0.6l2.3-10h0.8L161.5,74h0.1l1.8,0.9l0.8,1.8l-0.9,1.9L161.3,79.3z
		 M120.1,43.5h31.7V24.1h-31.7V43.5z M144.2,42.8l-1.8-0.9l-1.3-1.8l-1.3-1.5l-1.6-1.6l-0.8-0.8l-1.8,0.9l-5.2,2.5l-2.6,1.1
		l-2.8,0.9l-2.8,0.8l-0.3-0.8l9.4-6.1l2.7-2l-2.8-1.9l-6.4-3.5l0.3-0.8l2.6,0.3l2.5,0.5l2.3,0.8l2.3,0.8l2.2,1.1l0.3,0.2l4.5-4.1
		l1.6-1.6h-0.1l0.5-0.4l3.6,4l0.3,1.5l-1.6-0.4l-3.2,2.4l-1.5,1.1l1.8,1.3l1.8,1.6l1.8,1.8l0.6,2l-0.9,1.8L144.2,42.8z M129.8,67.6
		l-1.9-1l-1.4-2.5l-1-1.7l-2.1-3.3l-0.7-0.6l0.5-0.7l0.8,0.5l1,0.3L126,59l1.8,1l0.9,0.5l3.4,2.6l0.6,2l-0.9,1.8L129.8,67.6z
		 M129.6,58.4l-1.8-1.1l-0.6-1.5l-1.1-2.2l-0.9-1.5l-1.1-1.7l-0.8-0.7l0.4-0.7l0.9,0.5l1,0.4l1.8,0.8l0.9,0.5l1.6,1l1.6,1.2l0.7,0.7
		l0.4,2l-1.1,1.8L129.6,58.4z M130.1,80l-1.3-1l-2.8-4.7l2.9-1l4-1.2V47.5l5.4,0.9l1.3,0.8l-1.3,0.8v20.5l1.5-0.5l4.6-1.1l2.3-0.4
		l2.4-0.4l0.3,0.8l-4.3,2.3l-10.4,5l-4.1,1.8l-0.3,0.1L130.1,80z M137.4,19.8l-1.6-1.2l-0.3-0.8l-0.7-1.5l-0.9-1.5l-1.2-1.6
		l-1.4-1.8l-1-0.7l0.3-0.3l-0.1,0.1L130,10l0.9-0.9l1.6-2.1l0.8-1l1.8-2.7l0.9-1.6l0.2-0.4h-0.1l0.5-0.6l4,3.6l0.5,1.6L139,5.6
		l-0.9,0.7l-1.9,1.3L134,8.8l-1.2,0.6l-1.3,0.5l-0.6,0.4l0.8,0.4L133,11l1.1,0.4l1,0.4l1,0.6l1.8,1.2l0.8,0.7l0.8,0.7l0.8,0.8
		l0.3,2.1l-1.2,1.7L137.4,19.8z M146.1,67.4l-1.8-1.1l-0.3-0.8l-1.2-2.4l-0.4-0.8l-2.1-3.3l-0.8-0.6l0.5-0.7l0.8,0.4l1,0.4l1.9,0.9
		l2.6,1.7l0.8,0.6l1.5,1.5l0.4,1.9l-1.1,1.8L146.1,67.4z M153.6,19.8l-1.7-1.2l-0.3-0.8l-0.3-0.7l-0.8-1.6l-0.5-0.8l-1.8-2.4
		l-0.8-0.9l-0.9-0.7l0.3-0.3l-0.2,0.1l-0.5-0.6l0.9-0.9l3.6-4.8l1.1-1.8l0.4-0.8l0.2-0.4l0.4-0.6l4.1,3.6l0.5,1.6l-2.2-0.3l-0.9,0.7
		l-3,1.9l-2.3,1.2l-1.2,0.5l-0.6,0.4l0.8,0.4l1.2,0.3l1.1,0.4l1,0.4l1,0.6l1.8,1.2l0.9,0.7l0.8,0.7l0.8,0.8l0.3,2.1l-1.2,1.7
		L153.6,19.8z"/>
	<path class="st0" d="M183,66.3V10.8l5.4,2.7h9.6l2.7-2.2l4.9,4l-2.3,1.8v43.8l-5.3,2.7v-5.3h-9.6v5.3L183,66.3z M188.5,56.4h9.6
		V15.3h-9.6V56.4z M200.7,80.6l-0.5-0.6l2.5-3.3L205,73l1.9-3.9l1.8-4.3l1.4-4.7l1.2-5.1l0.8-5.5l0.7-5.9l0.3-6.3v-6.7v-8.1h-9.1
		v-1.8h9.1V3.1l5.4,0.8l1.3,0.9l-1.3,0.8v14.9h6.4l2.8-2.2l4.9,4l-2.3,1.3l0.1,6.1l-0.1,7.6l-0.1,6.9l-0.2,6.2l-0.3,5.4l-0.3,4.8
		l-0.4,4l-0.5,3.3l-0.6,2.7L227,73l-0.6,1l-0.6,0.8l-0.8,0.9l-0.8,0.7l-0.8,0.7l-1,0.5l-1.1,0.4l-1,0.3l-1.1,0.2l-1.2,0.1v-2.7
		l-8.9-1.3v-1.4h8.9h0.7l0.5-0.1l0.9-0.3l0.4-0.3l0.3-0.3l0.3-0.3l0.6-0.8l0.3-0.5l0.4-1.3l0.5-2.3l0.5-3l0.4-3.8l0.3-4.6l0.3-5.3
		l0.2-6l0.1-6.9v-7.5V26h-0.1v-3.6h-6.4v8.1l-0.3,6.9l-0.6,6.6l-0.9,6.2l-1.3,5.7l-1.7,5.3l-1.8,4.8l-2.3,4.4l-2.5,3.9l-3,3.4
		L200.7,80.6z M235.1,80.2V11.2l5.3,2.7h9.9l2.7-2.3l4.9,4l-2.3,1.8v57.5l-5.3,2.7v-5.3h-9.9v5.3L235.1,80.2z M240.5,70.4h9.9V15.6
		h-9.9V70.4z"/>
	<path class="st0" d="M276.9,63.8V11.4l5.3,2.8h11.1l2.7-2.3l4.9,4l-2.3,1.8v40.6l-5.3,2.7v-5.3h-11.1V61L276.9,63.8z M282.3,53.8
		h11.1V15.9h-11.1V53.8z M300.9,80.2l-0.3-0.8l3.4-1.8l2.9-2.1l2.6-2.3l2.2-2.6l1.8-2.8l1.4-3.2l1.1-3.5l0.8-3.8l0.4-3.8l-11.9,5.8
		l-1.4,0.6l-0.3,1.7l-1.3-0.9l-2.8-4.8l17.9-6.3V36.7h-13v-1.8h13v-17h-12.1v-1.8h12.1V1.7l5.3,0.8l1.3,0.9l-1.3,0.8v43.3l3.3-1.1
		l2.6-0.8l0.4,0.8l-2.3,1.6l-4.2,2.6l-0.2,2.8l-0.8,4.7l-1.2,4.3l-1.6,3.9l-2,3.5l-2.4,3.1l-2.8,2.5l-3.2,2.2l-3.6,1.5L300.9,80.2z
		 M331.6,79.4V1.7l5.3,0.8l1.4,0.9L337,4.3v11.8h6.6l3.7-4.1l4.5,4.1v1.8H337v17h6.6l2.8-3.1l3.6,3.1v1.8h-13v17h7.4l3.7-4l4.5,4
		v1.8H337v21L331.6,79.4z"/>
</g>
</svg>
