<?xml version="1.0" encoding="utf-8"?>
<!-- Generator: Adobe Illustrator 23.1.0, SVG Export Plug-In . SVG Version: 6.00 Build 0)  -->
<svg version="1.1" id="圖層_1" xmlns="http://www.w3.org/2000/svg" xmlns:xlink="http://www.w3.org/1999/xlink" x="0px" y="0px"
	 viewBox="0 0 353.09 81.28" style="enable-background:new 0 0 353.09 81.28;" xml:space="preserve">
<style type="text/css">
	.st0{fill:#FFFFFF;stroke:#FFFFFF;stroke-miterlimit:10;}
</style>
<g>
	<path class="st0" d="M44,10.68l0.33-0.42l0.08,0.08l2.25-1.92l4.93,4.09l-2.17,1.34l-1.5,0.58l-1.84,2.42l-2.25,2.59l-1.17,1.34
		l-2.67,2.51l-0.5,0.42h17.95l2.76-2.25l4.93,4.09l-2.25,1.75v45.34l-0.08,1.09l-0.17,1.17l-0.42,1.09l-0.58,1l-0.67,0.92
		l-0.92,0.75l-1,0.58l-1.09,0.33l-1.17,0.17l-1.09,0.08v-2.67l-9.02-1.34v-1.34h9.02l0.5-0.08l0.42-0.08l0.42-0.17l0.17-0.17
		l0.17-0.42l0.08-0.42v-0.5V54.69H17.53v2.67l-0.08,0.17l-0.42,3.26l-0.67,3.01l-0.92,2.92l-1.17,2.67l-1.42,2.42l-1.59,2.34
		l-1.84,2L7.26,77.9L5,79.4l-2.59,1.17L2,79.91l1.92-1.84l1.75-1.92l1.5-1.92l1.25-2.09l1.09-2.09l0.92-2.34l0.67-2.42l0.5-2.51
		l0.42-2.76l0.08-2.67V24.62l-1.84,1.92l-2.84,2.59l-3.01,2.42l-3.26,2.34l-0.5-0.58l5.09-5.85l2.34-2.92l4.09-5.68l1.84-2.84
		l1.59-2.92l1.42-2.92l1.17-2.92l1-2.51h-0.08l0.42-1.09l4.84,2.51L25.3,7.5l-1.67,0.33l-0.67,1.42l-0.75,1.42H44z M17.53,23.7
		h19.96l3.42-6.35l2.17-4.26l0.25-0.58H21.29l-1.84,2.84l-2,2.92l-2.17,2.84l-0.92,1L17.53,23.7z M17.53,38.07h17.04V25.54H17.53
		V38.07z M17.53,52.85h17.04V39.91H17.53V52.85z M39.99,38.07h17.45V25.54H39.99V38.07z M39.99,52.85h17.45V39.91H39.99V52.85z"/>
	<path class="st0" d="M96.81,79.82v-2.67l-6.26-1.34v-1.34h6.26l0.67-0.08l0.5-0.08l0.58-0.17l0.42-0.08l0.42-0.25l0.33-0.25
		l0.42-0.33l0.33-0.33l0.33-0.5l0.33-0.5l1.25-2.92l1.17-4.76l0.75-6.18l0.25-7.18l-0.42-7.85l-0.33-1.84l-1.84,3.26l-4.09,6.01
		l-2.34,2.84l-2.51,2.76l-2.59,2.51l-2.84,2.34l-3.09,2.17l-0.5-0.58l4.68-5.6l4.18-5.6l1.84-2.92l3.34-6.1l1.42-3.09l1.34-3.26
		l1.09-3.26l0.42,0.17l-1.67-6.43l-1.09-2.51l-2.17,2.25l-3.01,2.84l-3.17,2.59l-3.26,2.17l-3.42,2l-0.5-0.67l2.92-2.67l2.67-2.67
		l2.67-2.84l2.51-3.01l2.51-3.17l0.58-0.92l-0.67-1.59l-4.59-7.68l-5.85-7.35l0.5-0.58l7.18,6.43l5.51,7.77l3.92-6.76l3.84-8.1
		L108,1.32l4.68,2.84l0.84,1.34l-1.67,0.17l-1.42,2.67l-2.34,4.09l-2.51,3.76l-2.59,3.59l-1,1.25l1.92,4.18l2.76,8.68l0.08,0.5
		l0.25,0.08l-0.17,0.25l1.5,7.77l0.75,8.27v7.6l-0.67,6.6l-1.09,5.43l-1.5,4.09l-0.5,0.92l-0.75,0.92l-0.75,0.84l-0.75,0.67
		l-0.92,0.58l-1,0.5l-1,0.42l-1.09,0.25l-1.09,0.17L96.81,79.82z M112.26,80.41l-1.34-0.92l-2.76-4.76l0.83-0.25l6.93-2.17l0.5-0.17
		V48.42l5.43,0.83l1.34,0.92l-1.34,0.84v19.46l4.93-1.34l2.17-0.5l2.09-0.42l0.33,0.75l-3.67,2.34l-3.84,2.17l-6.26,3.01l-4.43,2
		l-0.5,0.25L112.26,80.41z M121.28,19.78l-1.67-1.17l-0.5-1.42l-0.84-1.59l-0.5-0.75l-1.92-2.42l-0.75-0.92l-0.92-0.67l0.25-0.33
		l-0.17,0.08l-0.5-0.58l1-0.92l3.59-4.84l1-1.75l0.5-0.75l0.17-0.42h-0.08l0.5-0.58l4.01,3.59l0.42,1.59l-2-0.33l-1,0.67l-2.92,1.92
		l-2.25,1.17l-1.25,0.5l-0.58,0.42l0.84,0.42l1.17,0.33l1.09,0.42l1,0.42l1,0.58l1.84,1.17l0.83,0.67l0.84,0.67l0.75,0.75l0.33,2.09
		l-1.17,1.67L121.28,19.78z M161.28,79.32l-2.59-0.5l-2.42-1.25l-1.92-1.92l-1.5-2.51l-1.25-2.84l-1-3.42l-0.75-3.84l-0.58-4.34
		l-0.08-1.84l-0.75,1.17l-2,0.42l-1.67-1.09l-0.58-1.42l-0.75-1.5l-0.92-1.5l-1.75-2.42l-0.75-0.67l0.42-0.67l0.92,0.5l1,0.33
		l1,0.42l0.92,0.42l1.75,1l0.84,0.58l0.84,0.58l0.75,0.58l0.5,0.42v-0.25l-0.17-4.93v-1.5l3.09,0.58v-2.67h-31.73l-5.34,2.67V19.7
		l5.34,2.67h31.73l2.67-2.25l4.93,4.01l-2.17,1.84v19.29l-5.34,2.67l2.25,0.42l1.34,0.84l-1.34,0.83l0.17,3.51l0.33,4.59l0.5,4.09
		l0.67,3.42l0.84,2.84l0.92,2.17l1,1.59l0.5,0.58l2.34-10.02h0.84l-0.84,11.19h0.08l1.84,0.92l0.75,1.84l-0.92,1.92L161.28,79.32z
		 M120.11,43.5h31.73V24.12h-31.73V43.5z M144.16,42.83l-1.84-0.92l-1.34-1.75l-1.34-1.5l-1.59-1.59l-0.84-0.75l-1.75,0.92
		l-5.18,2.51l-2.59,1.09l-2.84,0.92l-2.76,0.75l-0.33-0.75l9.44-6.1l2.67-2l-2.84-1.92l-6.43-3.51l0.25-0.75l2.59,0.33l2.51,0.5
		l2.34,0.84l2.34,0.84l2.17,1.09l0.25,0.17l4.51-4.09l1.59-1.59h-0.08l0.5-0.42l3.59,4.01l0.25,1.5l-1.59-0.42l-3.17,2.42l-1.5,1.09
		l1.75,1.34l1.84,1.59l1.75,1.75l0.58,2l-0.92,1.84L144.16,42.83z M129.8,67.55l-1.92-1l-1.42-2.51l-1-1.67l-2.09-3.34l-0.67-0.58
		l0.5-0.67l0.84,0.5l1,0.33l0.92,0.42l1.75,1l0.92,0.5l3.42,2.59l0.58,2l-0.92,1.84L129.8,67.55z M129.63,58.44l-1.75-1.09
		l-0.58-1.5l-1.09-2.17l-0.92-1.5l-1.09-1.67l-0.75-0.67l0.42-0.67l0.92,0.5l1,0.42l1.75,0.84l0.92,0.5l1.59,1l1.59,1.17l0.67,0.67
		l0.42,2l-1.09,1.75L129.63,58.44z M130.13,79.99l-1.34-1l-2.76-4.68l2.92-1l4.01-1.17V47.5l5.43,0.92l1.34,0.83l-1.34,0.84v20.54
		l1.5-0.5l4.59-1.09l2.34-0.42l2.42-0.42l0.33,0.75l-4.26,2.34l-10.44,5.01l-4.09,1.84l-0.25,0.08L130.13,79.99z M137.4,19.78
		l-1.59-1.17l-0.33-0.75l-0.67-1.5l-0.92-1.5l-1.17-1.59l-1.42-1.75l-1-0.67l0.25-0.33l-0.08,0.08l-0.5-0.58l0.92-0.92L132.47,7
		l0.75-1l1.84-2.67l0.92-1.59l0.17-0.42h-0.08l0.5-0.58l4.01,3.59l0.5,1.59l-2.09-0.33l-0.92,0.67l-1.92,1.34l-2.17,1.17l-1.17,0.58
		l-1.25,0.5l-0.58,0.42l0.84,0.42l1.17,0.33l1.09,0.42l1,0.42l1,0.58l1.84,1.17l0.84,0.67l0.84,0.67l0.75,0.75l0.33,2.09l-1.17,1.67
		L137.4,19.78z M146.08,67.38l-1.75-1.09L144,65.54l-1.17-2.42l-0.42-0.84l-2.09-3.26l-0.75-0.58l0.5-0.67l0.84,0.42l1,0.42
		l1.92,0.92l2.59,1.67l0.84,0.58l1.5,1.5l0.42,1.92l-1.09,1.75L146.08,67.38z M153.6,19.78l-1.67-1.17l-0.25-0.75l-0.33-0.67
		l-0.84-1.59l-0.5-0.75l-1.84-2.42l-0.75-0.92l-0.92-0.67l0.25-0.33l-0.17,0.08l-0.5-0.58L147,9.09l3.59-4.84l1.09-1.75l0.42-0.75
		l0.17-0.42l0.42-0.58l4.09,3.59l0.5,1.59l-2.17-0.33l-0.92,0.67l-3.01,1.92l-2.25,1.17l-1.17,0.5l-0.58,0.42l0.75,0.42l1.17,0.33
		l1.09,0.42l1,0.42l1,0.58l1.84,1.17l0.92,0.67l0.75,0.67l0.75,0.75l0.33,2.09l-1.17,1.67L153.6,19.78z"/>
	<path class="st0" d="M183.03,66.29V10.76l5.43,2.67h9.6l2.67-2.17l4.93,4.01l-2.25,1.75v43.84l-5.34,2.67v-5.34h-9.6v5.34
		L183.03,66.29z M188.46,56.36h9.6V15.27h-9.6V56.36z M200.73,80.57l-0.5-0.58l2.51-3.34l2.25-3.67l1.92-3.92l1.75-4.34l1.42-4.68
		l1.17-5.09l0.83-5.51l0.67-5.93l0.25-6.35v-6.68v-8.1h-9.1v-1.84h9.1V3.08l5.43,0.83l1.34,0.92l-1.34,0.83v14.86h6.35l2.76-2.17
		l4.93,4.01l-2.25,1.34l0.08,6.1l-0.08,7.6l-0.08,6.93l-0.17,6.18l-0.25,5.43l-0.33,4.76l-0.42,4.01l-0.5,3.34l-0.58,2.67
		l-0.84,2.25l-0.58,1l-0.58,0.83l-0.75,0.92l-0.84,0.67l-0.84,0.67l-1,0.5l-1.09,0.42l-1,0.25l-1.09,0.17l-1.17,0.08v-2.67
		l-8.94-1.34v-1.42h8.94h0.67l0.5-0.08l0.92-0.25l0.42-0.25l0.33-0.25l0.33-0.33l0.58-0.84l0.33-0.5l0.42-1.25l0.5-2.25l0.5-3.01
		l0.42-3.84l0.33-4.59l0.25-5.34l0.17-6.01l0.08-6.93V29.8v-3.84h-0.08v-3.59h-6.35v8.1l-0.33,6.93l-0.58,6.6l-0.92,6.18l-1.25,5.68
		l-1.67,5.26l-1.84,4.84l-2.34,4.43L207,74.31l-3.01,3.42L200.73,80.57z M235.14,80.24V11.18l5.34,2.67h9.94l2.67-2.25l4.93,4.01
		l-2.25,1.84v57.45l-5.34,2.67v-5.34h-9.94v5.34L235.14,80.24z M240.48,70.39h9.94V15.6h-9.94V70.39z"/>
	<path class="st0" d="M276.93,63.79V11.43l5.34,2.76h11.11l2.67-2.25l4.93,4.01l-2.25,1.84v40.58l-5.34,2.67v-5.34h-11.11v5.34
		L276.93,63.79z M282.27,53.85h11.11V15.94h-11.11V53.85z M300.9,80.16l-0.25-0.75l3.42-1.84l2.92-2.09l2.59-2.25l2.17-2.59
		l1.75-2.84l1.42-3.17l1.09-3.51l0.75-3.84l0.42-3.76l-11.94,5.76l-1.42,0.58l-0.33,1.67l-1.34-0.92l-2.76-4.76l17.87-6.35V36.73
		h-13.03v-1.84h13.03V17.86h-12.11v-1.75h12.11V1.74l5.34,0.84l1.34,0.92l-1.34,0.84v43.26l3.26-1.09l2.59-0.75l0.42,0.75
		l-2.25,1.59l-4.18,2.59l-0.17,2.76l-0.75,4.68l-1.17,4.26l-1.59,3.92l-2,3.51l-2.42,3.09l-2.84,2.51l-3.17,2.17l-3.59,1.5
		L300.9,80.16z M331.63,79.4V1.74l5.34,0.84l1.42,0.92l-1.42,0.84v11.77h6.6l3.67-4.09l4.51,4.09v1.75h-14.78v17.04h6.6l2.84-3.09
		l3.59,3.09v1.84h-13.03v17.04h7.43l3.67-4.01l4.51,4.01v1.84h-15.62v21.04L331.63,79.4z"/>
</g>
</svg>
