<?xml version="1.0" encoding="utf-8"?>
<!-- Generator: Adobe Illustrator 23.1.0, SVG Export Plug-In . SVG Version: 6.00 Build 0)  -->
<svg version="1.1" id="圖層_1" xmlns="http://www.w3.org/2000/svg" xmlns:xlink="http://www.w3.org/1999/xlink" x="0px" y="0px"
	 viewBox="0 0 89.14 200" style="enable-background:new 0 0 89.14 200;" xml:space="preserve">
<style type="text/css">
	.st0{fill:#35CC29;}
	.st1{fill:none;stroke:#35CC29;stroke-width:4.5;stroke-linecap:round;stroke-miterlimit:10;}
	.st2{fill:none;stroke:#35CC29;stroke-width:5;stroke-linecap:round;stroke-linejoin:round;stroke-miterlimit:10;}
	.st3{fill:none;stroke:#35CC29;stroke-width:2;stroke-linecap:round;stroke-miterlimit:10;}
	.st4{fill:#FFFFFF;}
</style>
<g>
	<circle class="st4" cx="32.29" cy="34.57" r="2.57"/>
	<circle class="st4" cx="56.86" cy="34.57" r="2.57"/>
	<path class="st4" d="M44.57,51c0.71,0,1.29-0.58,1.29-1.29V20c0-0.71-0.58-1.29-1.29-1.29c-0.71,0-1.29,0.58-1.29,1.29v29.71
		C43.29,50.42,43.86,51,44.57,51z"/>
	<path class="st4" d="M44.57,82.14c0.71,0,1.29-0.58,1.29-1.29V57.71c0-0.71-0.58-1.29-1.29-1.29c-0.71,0-1.29,0.58-1.29,1.29v23.14
		C43.29,81.57,43.86,82.14,44.57,82.14z"/>
	<circle class="st4" cx="79.14" cy="114" r="2"/>
	<circle class="st4" cx="70.57" cy="114" r="2"/>
	<circle class="st4" cx="62" cy="114" r="2"/>
	<circle class="st4" cx="53.43" cy="114" r="2"/>
	<circle class="st4" cx="79.14" cy="121.43" r="2"/>
	<circle class="st4" cx="70.57" cy="121.43" r="2"/>
	<circle class="st4" cx="62" cy="121.43" r="2"/>
	<circle class="st4" cx="53.43" cy="121.43" r="2"/>
	<circle class="st4" cx="79.14" cy="128.86" r="2"/>
	<circle class="st4" cx="70.57" cy="128.86" r="2"/>
	<circle class="st4" cx="79.14" cy="136.29" r="2"/>
	<path class="st4" d="M31.3,45.35c-0.67,0.23-1.03,0.96-0.81,1.63l6,17.71c0.18,0.54,0.68,0.87,1.22,0.87
		c0.14,0,0.28-0.02,0.41-0.07c0.67-0.23,1.03-0.96,0.81-1.63l-6-17.71C32.7,45.49,31.97,45.13,31.3,45.35z"/>
	<path class="st4" d="M23.17,52.92c0.24,0.42,0.67,0.65,1.12,0.65c0.22,0,0.44-0.05,0.64-0.17c0.62-0.35,0.83-1.14,0.48-1.75
		l-9.14-16c-0.35-0.62-1.14-0.83-1.75-0.48c-0.62,0.35-0.83,1.14-0.48,1.75L23.17,52.92z"/>
	<path class="st4" d="M24.86,61.46l10.86,20.57c0.23,0.44,0.68,0.69,1.14,0.69c0.2,0,0.41-0.05,0.6-0.15
		c0.63-0.33,0.87-1.11,0.54-1.74L27.14,60.26c-0.33-0.63-1.11-0.87-1.74-0.54C24.77,60.05,24.53,60.83,24.86,61.46z"/>
	<path class="st4" d="M21.03,69.13c0.25,0.29,0.61,0.44,0.97,0.44c0.3,0,0.6-0.1,0.85-0.32c0.53-0.47,0.59-1.28,0.12-1.81l-12-13.71
		c-0.47-0.53-1.28-0.59-1.81-0.12c-0.53,0.47-0.59,1.28-0.12,1.81L21.03,69.13z"/>
	<path class="st4" d="M8.54,67.87C8,67.42,7.19,67.49,6.73,68.03c-0.46,0.54-0.39,1.35,0.16,1.81L24.6,84.7
		c0.24,0.2,0.53,0.3,0.83,0.3c0.37,0,0.73-0.16,0.99-0.46c0.46-0.54,0.39-1.35-0.16-1.81L8.54,67.87z"/>
	<path class="st4" d="M21.02,92.94L7.88,83.8c-0.58-0.41-1.38-0.26-1.79,0.32c-0.41,0.58-0.26,1.38,0.32,1.79l13.14,9.14
		c0.22,0.16,0.48,0.23,0.73,0.23c0.41,0,0.81-0.19,1.06-0.55C21.75,94.15,21.6,93.35,21.02,92.94z"/>
	<path class="st4" d="M51.02,65.5c0.14,0.05,0.28,0.07,0.41,0.07c0.54,0,1.04-0.34,1.22-0.87l6-17.71c0.23-0.67-0.13-1.4-0.81-1.63
		c-0.67-0.23-1.4,0.13-1.63,0.81l-6,17.71C49.98,64.55,50.34,65.28,51.02,65.5z"/>
	<path class="st4" d="M64.22,53.4c0.2,0.11,0.42,0.17,0.64,0.17c0.45,0,0.88-0.23,1.12-0.65l9.14-16c0.35-0.62,0.14-1.4-0.48-1.75
		c-0.62-0.35-1.4-0.14-1.75,0.48l-9.14,16C63.39,52.26,63.6,53.05,64.22,53.4z"/>
	<path class="st4" d="M51.69,82.57c0.19,0.1,0.4,0.15,0.6,0.15c0.46,0,0.91-0.25,1.14-0.69l10.86-20.57
		c0.33-0.63,0.09-1.41-0.54-1.74c-0.63-0.33-1.41-0.09-1.74,0.54L51.15,80.83C50.82,81.46,51.06,82.23,51.69,82.57z"/>
	<path class="st4" d="M66.3,69.25c0.24,0.21,0.55,0.32,0.85,0.32c0.36,0,0.71-0.15,0.97-0.44l12-13.71
		c0.47-0.53,0.41-1.35-0.12-1.81c-0.53-0.47-1.35-0.41-1.81,0.12l-12,13.71C65.71,67.97,65.76,68.79,66.3,69.25z"/>
	<path class="st4" d="M62.73,84.54c0.25,0.3,0.62,0.46,0.99,0.46c0.29,0,0.58-0.1,0.83-0.3l17.71-14.86
		c0.54-0.46,0.61-1.27,0.16-1.81c-0.46-0.54-1.27-0.61-1.81-0.16L62.89,82.73C62.34,83.19,62.27,84,62.73,84.54z"/>
	<path class="st4" d="M81.27,83.8l-13.14,9.14c-0.58,0.41-0.73,1.21-0.32,1.79c0.25,0.36,0.65,0.55,1.06,0.55
		c0.25,0,0.51-0.07,0.73-0.23l13.14-9.14c0.58-0.41,0.73-1.21,0.32-1.79C82.65,83.54,81.85,83.4,81.27,83.8z"/>
	<path class="st4" d="M44.57,0C19.96,0,0,19.96,0,44.57v110.86C0,180.04,19.96,200,44.57,200s44.57-19.96,44.57-44.57V44.57
		C89.14,19.96,69.19,0,44.57,0z M77.78,19.36c-5.03-1.84-9.34-1.83-12.8,0.04c-0.74,0.4-1.41,0.87-1.99,1.37
		c0.22-4.18-0.74-7.77-2.88-10.74c-2.88-3.99-7.22-5.93-10.59-6.87C61.01,4.52,71.09,10.58,77.78,19.36z M39.63,3.16
		c-3.37,0.94-7.71,2.88-10.59,6.87c-2.14,2.97-3.1,6.56-2.88,10.74c-0.59-0.5-1.25-0.97-1.99-1.37c-3.47-1.87-7.78-1.88-12.8-0.04
		C18.05,10.58,28.13,4.52,39.63,3.16z M2.86,44.57c0-4.8,0.83-9.42,2.33-13.71h9.1c0.32,0,0.57-0.26,0.57-0.57
		c0-0.32-0.26-0.57-0.57-0.57H5.6c0.07-0.19,0.15-0.38,0.23-0.57h8.46c0.32,0,0.57-0.26,0.57-0.57S14.6,28,14.29,28H6.3
		c0.01-0.03,0.03-0.05,0.04-0.08c0.01-0.02,0.03-0.04,0.05-0.07c1.9-3.33,4.12-5.11,5.56-5.66c4.4-1.69,8.05-1.79,10.85-0.29
		c2.69,1.44,4.03,4.08,4.6,5.58c0.12,0.42,0.26,0.83,0.4,1.26c0.24,0.72,1,1.13,1.73,0.93c0.73-0.2,1.18-0.94,1.02-1.68
		c-0.02-0.07-0.14-0.63-0.45-1.46c-1.8-6.17-1.37-11.15,1.27-14.82c4.37-6.07,13.13-6.56,13.21-6.56c0.08,0,8.84,0.49,13.21,6.56
		c2.65,3.67,3.07,8.65,1.27,14.82c-0.31,0.83-0.44,1.39-0.45,1.46c-0.16,0.74,0.29,1.48,1.02,1.68c0.13,0.03,0.25,0.05,0.38,0.05
		c0.6,0,1.16-0.38,1.35-0.98c0.15-0.45,0.29-0.89,0.42-1.33c0.57-1.5,1.9-4.06,4.56-5.49c2.8-1.51,6.46-1.42,10.87,0.27
		c1.44,0.55,3.66,2.33,5.56,5.66c0.01,0.02,0.03,0.04,0.05,0.07c0.01,0.03,0.03,0.05,0.04,0.08h-7.42c-0.32,0-0.57,0.26-0.57,0.57
		s0.26,0.57,0.57,0.57h7.89c0.08,0.19,0.15,0.38,0.23,0.57h-8.11c-0.32,0-0.57,0.26-0.57,0.57c0,0.32,0.26,0.57,0.57,0.57h8.53
		c1.5,4.3,2.33,8.91,2.33,13.71V100H58.56c-0.15-7.6-6.36-13.71-13.99-13.71S30.73,92.4,30.58,100H2.86V44.57z M55.99,100h-5.43
		c-0.15-3.18-2.77-5.71-5.99-5.71c-3.22,0-5.84,2.53-5.99,5.71h-5.43c0.15-6.18,5.2-11.14,11.41-11.14S55.83,93.82,55.99,100z
		 M86.29,104.57v2.86H2.86v-2.86H86.29z M12.65,166.29H4.3c-0.43-1.57-0.76-3.18-1-4.83h13.46
		C15.39,163.05,14.01,164.68,12.65,166.29z M18.22,159.75H3.08c-0.15-1.42-0.23-2.86-0.23-4.32v-0.51H22.4
		C21.08,156.43,19.67,158.05,18.22,159.75z M23.98,153.21H2.86v-4.83h40v4.67c-0.57,0.45-0.97,0.45-1.27,0.45
		c-0.7,0-1.66-0.26-2.86-0.76c-0.4-0.17-0.83-0.38-1.28-0.61c-0.49-0.24-0.99-0.49-1.54-0.73c-1.7-0.73-3.37-1.11-4.95-1.11
		C28.36,150.3,25.97,151.3,23.98,153.21z M8.45,121.71l-2.38,4.13l-2.38-4.13H8.45z M15.17,121.71l-2.38,4.13l-2.38-4.13H15.17z
		 M21.88,121.71l-2.38,4.13l-2.38-4.13H21.88z M28.6,121.71l-2.38,4.13l-2.38-4.13H28.6z M35.31,121.71l-2.38,4.13l-2.38-4.13H35.31
		z M42.03,121.71l-2.38,4.13l-2.38-4.13H42.03z M9.43,123.43l2.38,4.13H7.05L9.43,123.43z M16.14,123.43l2.38,4.13h-4.77
		L16.14,123.43z M22.86,123.43l2.38,4.13h-4.77L22.86,123.43z M29.57,123.43l2.38,4.13h-4.77L29.57,123.43z M36.29,123.43l2.38,4.13
		H33.9L36.29,123.43z M42.86,120.51h-40v-4.83h40V120.51z M42.86,128.76v4.83h-40v-4.83H42.86z M42.86,135.3v4.83h-40v-4.83H42.86z
		 M42.86,141.84v4.83h-40v-4.83H42.86z M42.86,113.97h-40v-4.83h40V113.97z M4.8,168h6.39c-1.53,1.81-3,3.53-4.38,5.14
		C6.03,171.48,5.36,169.76,4.8,168z M44.57,197.14c-4.84,0-9.49-0.84-13.81-2.36c2.69-3.29,5.24-6.58,8.01-9.69
		c5.07-5.7,10.04-11.53,15.51-16.84c4.5-4.37,7.09-4,11.57,0.28c4.09,3.91,8.19,7.81,12.25,11.69
		C70.49,190.48,58.29,197.14,44.57,197.14z M86.29,155.43c0,8.14-2.35,15.73-6.4,22.16l-3.04-2.9c-2.93-2.8-5.88-5.61-8.82-8.42
		c-2.2-2.11-4.9-4.26-8.15-4.26c-3.25,0-5.87,2.14-7.79,4c-4.55,4.43-8.8,9.24-12.91,13.89c-0.92,1.04-1.84,2.08-2.76,3.11
		c-2,2.25-3.91,4.62-5.75,6.91c-0.84,1.04-1.68,2.09-2.54,3.13l-0.43,0.52c-8.14-3.62-14.91-9.76-19.32-17.43
		c5.18-6.02,12.03-14.22,17.2-20.07c2.52-2.85,5.59-3.28,9.09-1.78c0.96,0.41,1.87,0.94,2.84,1.35c4.67,1.98,7.25,1.14,9.77-3.19
		c2.3-3.95,4.53-7.93,6.87-11.85c0.72-1.21,1.56-2.42,2.56-3.39c2.81-2.72,5.61-2.61,8.07,0.41c1.74,2.13,3.27,4.45,4.74,6.77
		c2.89,4.54,5.13,4.86,8.97,1.13c2.65-2.57,4.45-2.66,7.14-0.28c0.24,0.21,0.48,0.5,0.66,0.82V155.43z M82.16,140.36
		c-2.59,0-4.59,1.65-5.87,2.89c-1.45,1.4-2.11,1.63-2.25,1.67c-0.15-0.08-0.76-0.47-1.88-2.23c-1.47-2.32-3.09-4.78-4.96-7.07
		c-2.37-2.91-4.86-3.52-6.53-3.52c-2.15,0-4.22,0.95-6.17,2.83c-1.08,1.04-2.06,2.33-3.08,4.05c-1.45,2.44-2.89,4.94-4.27,7.35
		c-0.29,0.51-0.59,1.02-0.88,1.53v-38.71h40v32.61C85.18,141,83.79,140.36,82.16,140.36z"/>
</g>
</svg>
